<?xml version="1.0" encoding="utf-8"?>
<!-- Generator: Adobe Illustrator 17.0.0, SVG Export Plug-In . SVG Version: 6.00 Build 0)  -->
<!DOCTYPE svg PUBLIC "-//W3C//DTD SVG 1.1//EN" "http://www.w3.org/Graphics/SVG/1.1/DTD/svg11.dtd">
<svg version="1.1" id="Layer_1" xmlns="http://www.w3.org/2000/svg" xmlns:xlink="http://www.w3.org/1999/xlink" x="0px" y="0px"
	 width="320px" height="180px" viewBox="-60 -40 320 180" enable-background="new -60 -40 320 180" xml:space="preserve">
<g transform="rotate(0 50 50)">
	<path fill="#FFFFFF" d="M100,24L100,24c1.657,0,3,2.686,3,6l0,0c0,3.314-1.343,6-3,6l0,0c-1.657,0-3-2.686-3-6l0,0
		C97,26.686,98.343,24,100,24z	">
<animate  fill="remove" restart="always" additive="replace" begin="-1.2222222222222219s" accumulate="none" calcMode="linear" dur="1.333333333333333s" repeatCount="indefinite" attributeName="opacity" values="1;0" keyTimes="0;1">
			</animate>
	</path>
</g>
<g transform="rotate(30 50 50)">
	<path fill="#FFFFFF" d="M93.301-1L93.301-1c1.657,0,3,2.686,3,6l0,0c0,3.314-1.343,6-3,6l0,0c-1.657,0-3-2.686-3-6l0,0
		C90.301,1.686,91.644-1,93.301-1z	">
<animate  fill="remove" restart="always" additive="replace" begin="-1.111111111111111s" accumulate="none" calcMode="linear" dur="1.333333333333333s" repeatCount="indefinite" attributeName="opacity" values="1;0" keyTimes="0;1">
			</animate>
	</path>
</g>
<g transform="rotate(60 50 50)">
	<path fill="#FFFFFF" d="M75-19.301L75-19.301c1.657,0,3,2.686,3,6l0,0c0,3.314-1.343,6-3,6l0,0c-1.657,0-3-2.686-3-6l0,0
		C72-16.615,73.343-19.301,75-19.301z	">
<animate  fill="remove" restart="always" additive="replace" begin="-0.9999999999999998s" accumulate="none" calcMode="linear" dur="1.333333333333333s" repeatCount="indefinite" attributeName="opacity" values="1;0" keyTimes="0;1">
			</animate>
	</path>
</g>
<g transform="rotate(90 50 50)">
	<path fill="#FFFFFF" d="M50-26L50-26c1.657,0,3,2.686,3,6l0,0c0,3.314-1.343,6-3,6l0,0c-1.657,0-3-2.686-3-6l0,0
		C47-23.314,48.343-26,50-26z	">
<animate  fill="remove" restart="always" additive="replace" begin="-0.8888888888888887s" accumulate="none" calcMode="linear" dur="1.333333333333333s" repeatCount="indefinite" attributeName="opacity" values="1;0" keyTimes="0;1">
			</animate>
	</path>
</g>
<g transform="rotate(120 50 50)">
	<path fill="#FFFFFF" d="M25-19.301L25-19.301c1.657,0,3,2.686,3,6l0,0c0,3.314-1.343,6-3,6l0,0c-1.657,0-3-2.686-3-6l0,0
		C22-16.615,23.343-19.301,25-19.301z	">
<animate  fill="remove" restart="always" additive="replace" begin="-0.7777777777777777s" accumulate="none" calcMode="linear" dur="1.333333333333333s" repeatCount="indefinite" attributeName="opacity" values="1;0" keyTimes="0;1">
			</animate>
	</path>
</g>
<g transform="rotate(150 50 50)">
	<path fill="#FFFFFF" d="M6.699-1L6.699-1c1.657,0,3,2.686,3,6l0,0c0,3.314-1.343,6-3,6l0,0c-1.657,0-3-2.686-3-6l0,0
		C3.699,1.686,5.042-1,6.699-1z	">
<animate  fill="remove" restart="always" additive="replace" begin="-0.6666666666666665s" accumulate="none" calcMode="linear" dur="1.333333333333333s" repeatCount="indefinite" attributeName="opacity" values="1;0" keyTimes="0;1">
			</animate>
	</path>
</g>
<g transform="rotate(180 50 50)">
	<path fill="#FFFFFF" d="M0,24L0,24c1.657,0,3,2.686,3,6l0,0c0,3.314-1.343,6-3,6l0,0c-1.657,0-3-2.686-3-6l0,0
		C-3,26.686-1.657,24,0,24z	">
<animate  fill="remove" restart="always" additive="replace" begin="-0.5555555555555555s" accumulate="none" calcMode="linear" dur="1.333333333333333s" repeatCount="indefinite" attributeName="opacity" values="1;0" keyTimes="0;1">
			</animate>
	</path>
</g>
<g transform="rotate(210 50 50)">
	<path fill="#FFFFFF" d="M6.699,49L6.699,49c1.657,0,3,2.686,3,6l0,0c0,3.314-1.343,6-3,6l0,0c-1.657,0-3-2.686-3-6l0,0
		C3.699,51.686,5.042,49,6.699,49z	">
<animate  fill="remove" restart="always" additive="replace" begin="-0.44444444444444436s" accumulate="none" calcMode="linear" dur="1.333333333333333s" repeatCount="indefinite" attributeName="opacity" values="1;0" keyTimes="0;1">
			</animate>
	</path>
</g>
<g transform="rotate(240 50 50)">
	<path fill="#FFFFFF" d="M25,67.301L25,67.301c1.657,0,3,2.686,3,6l0,0c0,3.314-1.343,6-3,6l0,0c-1.657,0-3-2.686-3-6l0,0
		C22,69.988,23.343,67.301,25,67.301z	">
<animate  fill="remove" restart="always" additive="replace" begin="-0.33333333333333326s" accumulate="none" calcMode="linear" dur="1.333333333333333s" repeatCount="indefinite" attributeName="opacity" values="1;0" keyTimes="0;1">
			</animate>
	</path>
</g>
<g transform="rotate(270 50 50)">
	<path fill="#FFFFFF" d="M50,74L50,74c1.657,0,3,2.686,3,6l0,0c0,3.314-1.343,6-3,6l0,0c-1.657,0-3-2.686-3-6l0,0
		C47,76.686,48.343,74,50,74z	">
<animate  fill="remove" restart="always" additive="replace" begin="-0.22222222222222218s" accumulate="none" calcMode="linear" dur="1.333333333333333s" repeatCount="indefinite" attributeName="opacity" values="1;0" keyTimes="0;1">
			</animate>
	</path>
</g>
<g transform="rotate(300 50 50)">
	<path fill="#FFFFFF" d="M75,67.301L75,67.301c1.657,0,3,2.686,3,6l0,0c0,3.314-1.343,6-3,6l0,0c-1.657,0-3-2.686-3-6l0,0
		C72,69.988,73.343,67.301,75,67.301z	">
<animate  fill="remove" restart="always" additive="replace" begin="-0.11111111111111109s" accumulate="none" calcMode="linear" dur="1.333333333333333s" repeatCount="indefinite" attributeName="opacity" values="1;0" keyTimes="0;1">
			</animate>
	</path>
</g>
<g transform="rotate(330 50 50)">
	<path fill="#FFFFFF" d="M93.301,49L93.301,49c1.657,0,3,2.686,3,6l0,0c0,3.314-1.343,6-3,6l0,0c-1.657,0-3-2.686-3-6l0,0
		C90.301,51.686,91.644,49,93.301,49z	">
<animate  fill="remove" restart="always" additive="replace" begin="0s" accumulate="none" calcMode="linear" dur="1.333333333333333s" repeatCount="indefinite" attributeName="opacity" values="1;0" keyTimes="0;1">
			</animate>
	</path>
</g>
</svg>
